<svg width="100%" height="100%" viewBox="0 0 800 600" xmlns="http://www.w3.org/2000/svg">
  <defs>
    <clipPath id="dogSilhouette">
      <path d="M450,150 C500,100 530,130 550,160 C570,190 580,130 610,150 C640,170 630,210 650,220 C670,230 690,210 710,230 C730,250 710,280 720,300 C730,320 750,330 750,350 C750,370 730,390 710,400 C690,410 670,420 650,430 C630,440 610,450 590,460 C570,470 550,480 530,490 C510,500 490,510 470,520 C450,530 430,530 410,530 C390,530 370,520 350,510 C330,500 310,490 290,480 C270,470 250,460 230,450 C210,440 190,430 180,410 C170,390 200,370 190,350 C180,330 150,320 150,300 C150,280 170,260 180,240 C190,220 180,190 200,180 C220,170 240,190 260,180 C280,170 290,140 310,130 C330,120 350,140 370,130 C390,120 400,90 420,100 C440,110 430,140 450,150 Z" />
    </clipPath>
  </defs>
  
  <rect width="100%" height="100%" fill="#00a8e8" />
  
  <g clip-path="url(#dogSilhouette)">
    <rect width="100%" height="100%" fill="#ffe082" />
    <ellipse cx="420" cy="200" rx="60" ry="40" fill="#333" opacity="0.8" />
    <ellipse cx="280" cy="200" rx="60" ry="40" fill="#333" opacity="0.8" />
    <ellipse cx="350" cy="300" rx="100" ry="50" fill="#fff" opacity="0.6" />
  </g>
</svg> 