<svg xmlns="http://www.w3.org/2000/svg" xmlns:xlink="http://www.w3.org/1999/xlink" width="512" height="512" x="0" y="0" viewBox="0 0 512 512" style="enable-background:new 0 0 512 512" xml:space="preserve" class=""><g><path d="M497 283c-8.284 0-15 6.716-15 15v18.5c0 28.175-10.974 54.671-30.895 74.601C431.171 411.026 404.676 422 376.5 422 318.327 422 271 374.673 271 316.5v-56.377c9.075-4.279 15.943-12.438 18.551-22.889l5.557-22.267a17.493 17.493 0 0 1 16.999-13.278c6.754 0 12.976 3.949 15.852 10.061l6.81 14.468c7.509 15.957 23.738 25.352 41.344 23.922 17.516-1.417 31.946-13.227 36.765-30.086 9.229-32.294 1.206-69.515-21.46-99.566-13.654-18.103-32.34-33.104-54.037-43.38C313.413 65.755 286.037 60 256.01 60c-30.106 0-57.522 5.74-81.484 17.059-21.696 10.25-40.369 25.223-53.999 43.301-22.655 30.049-30.645 67.332-21.371 99.732 4.82 16.842 19.246 28.637 36.75 30.05 17.612 1.425 33.839-7.97 41.347-23.924l6.809-14.469c2.876-6.111 9.098-10.06 15.852-10.06 8.058 0 15.048 5.46 16.999 13.278l5.556 22.267c2.606 10.444 9.465 18.599 18.53 22.88V316.5c0 58.173-47.327 105.5-105.5 105.5-28.175 0-54.671-10.974-74.601-30.894C40.974 371.171 30 344.675 30 316.5V298c0-8.284-6.716-15-15-15s-15 6.716-15 15v18.5c0 36.186 14.092 70.213 39.686 95.819C65.287 437.908 99.314 452 135.5 452c52.416 0 97.974-29.919 120.5-73.574C278.526 422.081 324.084 452 376.5 452c36.187 0 70.214-14.092 95.819-39.686C497.908 386.713 512 352.686 512 316.5V298c0-8.284-6.716-15-15-15zM199.915 171.689c-18.319 0-35.196 10.71-42.997 27.286l-6.809 14.469c-3.259 6.925-9.846 6.95-11.789 6.795-1.901-.153-8.265-1.213-10.322-8.402-6.697-23.398-.535-50.844 16.484-73.417C158.115 120.337 190.734 90 256.01 90c65.112 0 97.778 30.419 111.456 48.552 17.029 22.578 23.222 49.964 16.564 73.258-2.061 7.21-8.435 8.273-10.339 8.427-1.939.154-8.522.13-11.779-6.794l-6.81-14.467c-7.799-16.576-24.677-27.287-42.997-27.287A47.448 47.448 0 0 0 266 207.704l-5.557 22.267c-.753 4.407-8.113 4.407-8.866 0l-5.556-22.267a47.448 47.448 0 0 0-46.106-36.015z" fill="#f25314" opacity="1" data-original="#000000"></path></g></svg>