<svg xmlns="http://www.w3.org/2000/svg" id="uuid-3d9c19db-d32d-4785-8051-7718b914037e" data-name="Layer_2" viewBox="0 0 453.04 452.61">
  <g id="uuid-8b1b0391-57b7-40f5-98e2-9d051813b6c2" data-name="Layer_1">
    <path d="M441.3,385.65c15.65,15.65,15.65,40,0,55.65-7.83,7.83-17.39,11.3-27.83,11.3s-20-3.48-27.83-11.3l-159.13-159.13-159.13,159.13c-7.83,7.83-17.39,11.3-27.83,11.3s-20-3.48-27.83-11.3c-15.65-15.65-15.65-40,0-55.65l159.13-159.13L11.74,67.39C-3.91,51.74-3.91,27.39,11.74,11.74s40-15.65,55.65,0l159.13,159.13L385.65,11.74c15.65-15.65,40-15.65,55.65,0s15.65,40,0,55.65l-159.13,159.13,159.13,159.13Z" style="fill: #f25314;"/>
  </g>
</svg>